<?xml version="1.0" encoding="UTF-8" standalone="no"?><!DOCTYPE svg PUBLIC "-//W3C//DTD SVG 1.1//EN" "http://www.w3.org/Graphics/SVG/1.1/DTD/svg11.dtd"><svg width="100%" height="100%" viewBox="0 0 512 512" version="1.1" xmlns="http://www.w3.org/2000/svg" xmlns:xlink="http://www.w3.org/1999/xlink" xml:space="preserve" xmlns:serif="http://www.serif.com/" style="fill-rule:evenodd;clip-rule:evenodd;stroke-linejoin:round;stroke-miterlimit:2;"><path d="M353.797,347.139c-23.876,23.553 -56.643,38.096 -92.775,38.096c-72.974,-0 -132.22,-59.317 -132.22,-132.379c-0,-73.061 59.246,-132.378 132.22,-132.378c72.974,-0 132.219,59.317 132.219,132.378c0,25.399 -7.16,49.137 -19.567,69.3l117.641,115.778c16.913,16.934 16.913,44.431 -0,61.366c-16.914,16.934 -44.378,16.933 -61.292,-0.001l-18.903,-19.29l23.036,-23.063l18.804,19.388c4.254,4.26 11.163,4.26 15.417,0.001c4.255,-4.26 4.255,-11.176 0,-15.436l-114.58,-113.76Zm-92.775,-189.463c-53.653,0 -97.212,43.612 -97.212,97.329c-0,53.717 43.559,97.328 97.212,97.328c53.652,0 97.212,-43.611 97.212,-97.328c-0,-53.717 -43.56,-97.329 -97.212,-97.329Z" style="fill:#818cf8;"/><path d="M420.046,443.936c-49.351,50.898 -103.543,61.027 -159.024,62.714c-139.647,-0 -253.022,-113.511 -253.022,-253.325c-0,-139.814 113.375,-253.325 253.022,-253.325c83.611,-0 157.804,40.692 203.884,103.357l-66.507,68.498c-27.836,-46.917 -78.964,-78.39 -137.377,-78.39c-88.124,-0 -159.669,71.631 -159.669,159.86c-0,88.229 71.545,159.86 159.669,159.86c33.485,-1.013 67.188,-9.213 96.952,-31.74l62.072,62.491Zm-159.024,-2.979c-0.641,0.006 -1.283,0.01 -1.926,0.01c-76.369,-0 -142.239,-45.366 -172.169,-110.626l-25.45,11.19l0,0.377c33.972,76.517 110.577,129.929 199.545,129.929l-0,-30.88Zm-127.025,-365.295l15.235,21.364c9.579,-6.848 19.82,-12.826 30.609,-17.817c24.115,-11.156 50.965,-17.381 79.255,-17.381c31.856,-0 61.885,7.893 88.24,21.831l12.721,-25.073c-29.729,-15.199 -63.39,-23.773 -99.035,-23.773c-47.369,-0 -91.234,15.141 -127.025,40.849Z" style="fill:#818cf8;"/></svg>